<svg data-v-423bf9ae="" xmlns="http://www.w3.org/2000/svg" viewBox="0 0 180.43165082622042 60" class="font"><!----><defs data-v-423bf9ae=""><linearGradient data-v-423bf9ae="" gradientTransform="rotate(25)" id="c959fabc-1400-4a52-a7c0-f80026ab237a" x1="0%" y1="0%" x2="100%" y2="0%"><stop data-v-423bf9ae="" offset="0%" style="stop-color: rgb(32, 72, 79); stop-opacity: 1;"></stop><stop data-v-423bf9ae="" offset="100%" style="stop-color: rgb(78, 155, 171); stop-opacity: 1;"></stop></linearGradient></defs><!----><g data-v-423bf9ae="" id="8660ff76-6f84-466a-a987-21a6070908b8" fill="#ffffff" transform="matrix(3.597122236345648,0,0,3.597122236345648,-1.978419691272336,-10.467625778090735)"><path d="M2.52 7.21L2.52 7.21L2.55 6.57L2.55 6.57Q2.55 5.26 2.25 4.68L2.25 4.68L2.25 4.68Q2.39 4.55 2.68 4.45L2.68 4.45L2.68 4.45Q2.97 4.35 3.19 4.35L3.19 4.35L3.19 4.35Q3.68 4.35 3.92 4.69L3.92 4.69L3.92 4.69Q4.16 5.03 4.16 5.82L4.16 5.82L4.16 5.82Q4.16 6.13 3.99 7.21L3.99 7.21L3.99 7.21Q5.71 7.18 6.27 6.80L6.27 6.80L6.27 6.80Q6.16 7.71 5.64 8.02L5.64 8.02L5.64 8.02Q5.12 8.33 3.79 8.36L3.79 8.36L3.79 8.36Q3.15 12.32 3.15 14.31L3.15 14.31L3.15 14.31Q3.15 14.77 3.35 14.99L3.35 14.99L3.35 14.99Q3.56 15.22 3.89 15.22L3.89 15.22L3.89 15.22Q4.21 15.22 4.59 14.93L4.59 14.93L4.59 14.93Q4.97 14.64 5.19 14.21L5.19 14.21L5.19 14.21Q5.45 14.52 5.45 14.87L5.45 14.87L5.45 14.87Q5.45 15.41 4.91 15.83L4.91 15.83L4.91 15.83Q4.37 16.24 3.51 16.24L3.51 16.24L3.51 16.24Q2.66 16.24 2.16 15.79L2.16 15.79L2.16 15.79Q1.67 15.33 1.67 14.35L1.67 14.35L1.67 14.35Q1.67 13.47 1.99 11.25L1.99 11.25L1.99 11.25Q2.31 9.03 2.39 8.37L2.39 8.37L2.39 8.37Q1.15 8.37 0.55 8.75L0.55 8.75L0.55 8.75Q0.55 8.11 0.67 7.84L0.67 7.84L0.67 7.84Q0.80 7.57 1.01 7.46L1.01 7.46L1.01 7.46Q1.53 7.21 2.52 7.21ZM10.50 7.50L10.50 7.50L10.50 7.50Q9.84 7.50 9.36 8.00L9.36 8.00L9.36 8.00Q8.88 8.50 8.64 9.25L8.64 9.25L8.64 9.25Q8.19 10.65 8.19 12.09L8.19 12.09L8.19 12.09Q8.19 13.52 8.78 14.38L8.78 14.38L8.78 14.38Q9.37 15.23 10.42 15.23L10.42 15.23L10.42 15.23Q11.09 15.23 11.58 14.74L11.58 14.74L11.58 14.74Q12.07 14.24 12.31 13.48L12.31 13.48L12.31 13.48Q12.75 12.04 12.75 10.62L12.75 10.62L12.75 10.62Q12.75 9.20 12.16 8.35L12.16 8.35L12.16 8.35Q11.56 7.50 10.50 7.50ZM9.73 16.27L9.73 16.27L9.73 16.27Q8.27 16.27 7.48 15.18L7.48 15.18L7.48 15.18Q6.68 14.08 6.68 12.40L6.68 12.40L6.68 12.40Q6.68 11.38 7 10.34L7 10.34L7 10.34Q7.32 9.30 7.88 8.42L7.88 8.42L7.88 8.42Q8.44 7.55 9.32 7.00L9.32 7.00L9.32 7.00Q10.21 6.45 11.23 6.45L11.23 6.45L11.23 6.45Q12.68 6.45 13.48 7.55L13.48 7.55L13.48 7.55Q14.27 8.64 14.27 10.32L14.27 10.32L14.27 10.32Q14.27 12.04 13.48 13.58L13.48 13.58L13.48 13.58Q12.63 15.25 11.28 15.92L11.28 15.92L11.28 15.92Q10.56 16.27 9.73 16.27ZM19.92 15.27L19.92 15.27L19.92 15.27Q21.06 15.27 21.71 14.04L21.71 14.04L21.71 14.04Q22.36 12.80 22.36 10.89L22.36 10.89L22.36 10.89Q22.36 9.62 22.06 8.78L22.06 8.78L22.06 8.78Q21.76 7.94 21.21 7.94L21.21 7.94L21.21 7.94Q20.66 7.94 19.96 9.03L19.96 9.03L19.96 9.03Q19.25 10.12 18.70 11.70L18.70 11.70L18.70 11.70Q18.16 13.27 18.09 14.55L18.09 14.55L18.09 14.55Q19.08 15.27 19.92 15.27ZM16.49 15.78L16.49 15.78Q16.79 13.93 17.18 10.24L17.18 10.24L17.18 10.24Q17.58 6.55 17.58 5.53L17.58 5.53L17.58 5.53Q17.58 4.51 17.53 4.04L17.53 4.04L17.53 4.04Q17.47 3.57 17.29 3.22L17.29 3.22L17.29 3.22Q17.64 2.91 18.19 2.91L18.19 2.91L18.19 2.91Q18.73 2.91 18.96 3.25L18.96 3.25L18.96 3.25Q19.19 3.58 19.19 4.37L19.19 4.37L19.19 4.37Q19.19 5.15 18.27 11.19L18.27 11.19L18.27 11.19Q18.90 9.14 19.84 7.80L19.84 7.80L19.84 7.80Q20.78 6.45 21.56 6.45L21.56 6.45L21.56 6.45Q22.51 6.45 23.16 7.46L23.16 7.46L23.16 7.46Q23.81 8.46 23.81 10.46L23.81 10.46L23.81 10.46Q23.81 12.63 22.92 14.35L22.92 14.35L22.92 14.35Q22.47 15.19 21.72 15.71L21.72 15.71L21.72 15.71Q20.97 16.23 20.03 16.23L20.03 16.23L20.03 16.23Q18.83 16.23 17.99 15.29L17.99 15.29L17.99 15.29Q17.91 15.75 17.74 15.95L17.74 15.95L17.74 15.95Q17.57 16.14 17.21 16.14L17.21 16.14L17.21 16.14Q16.86 16.14 16.49 15.78L16.49 15.78ZM26.03 13.89L26.03 13.89L26.03 13.89Q26.03 13.12 26.28 11.48L26.28 11.48L26.28 11.48Q26.54 9.84 26.54 8.67L26.54 8.67L26.54 8.67Q26.54 7.49 26.25 6.93L26.25 6.93L26.25 6.93Q26.60 6.61 27.09 6.61L27.09 6.61L27.09 6.61Q28.13 6.61 28.13 7.67L28.13 7.67L28.13 7.67Q28.13 8.02 27.80 10.36L27.80 10.36L27.80 10.36Q27.47 12.70 27.47 13.80L27.47 13.80L27.47 13.80Q27.47 14.91 28.14 14.91L28.14 14.91L28.14 14.91Q28.70 14.91 29.50 13.59L29.50 13.59L29.50 13.59Q30.30 12.28 30.86 10.63L30.86 10.63L30.86 10.63Q31.42 8.99 31.42 8.20L31.42 8.20L31.42 8.20Q31.42 7.41 31.21 6.93L31.21 6.93L31.21 6.93Q31.57 6.61 32.06 6.61L32.06 6.61L32.06 6.61Q33.10 6.61 33.10 7.67L33.10 7.67L33.10 7.67Q33.10 8.44 32.83 10.04L32.83 10.04L32.83 10.04Q32.56 11.63 32.56 12.54L32.56 12.54L32.56 12.54Q32.56 14.53 33.22 15.61L33.22 15.61L33.22 15.61Q32.80 16.13 32.27 16.13L32.27 16.13L32.27 16.13Q31.07 16.13 31.07 13.17L31.07 13.17L31.07 13.17Q31.07 12.89 31.23 11.34L31.23 11.34L31.23 11.34Q30.04 14.15 29.25 15.19L29.25 15.19L29.25 15.19Q28.91 15.64 28.50 15.95L28.50 15.95L28.50 15.95Q28.08 16.25 27.69 16.25L27.69 16.25L27.69 16.25Q26.03 16.25 26.03 13.89ZM40.14 7.88L40.14 7.88L40.14 7.88Q40.14 7.48 39.98 7.21L39.98 7.21L39.98 7.21Q40.31 6.69 40.98 6.69L40.98 6.69L40.98 6.69Q41.62 6.69 41.62 7.41L41.62 7.41L41.62 7.41Q41.62 8.11 41.05 10.25L41.05 10.25L41.05 10.25Q40.47 12.39 39.88 13.88L39.88 13.88L39.88 13.88Q39.28 15.37 38.59 16.65L38.59 16.65L38.59 16.65Q37.90 17.93 36.95 18.76L36.95 18.76L36.95 18.76Q36.01 19.59 35.01 19.59L35.01 19.59L35.01 19.59Q33.08 19.59 33.08 18.28L33.08 18.28L33.08 18.28Q33.08 17.68 33.53 17.16L33.53 17.16L33.53 17.16Q33.91 18.41 35.20 18.41L35.20 18.41L35.20 18.41Q36.74 18.41 38.04 15.72L38.04 15.72L38.04 15.72Q37.62 15.72 37.44 15.57L37.44 15.57L37.44 15.57Q37.25 15.41 37.17 15.11L37.17 15.11L37.17 15.11Q36.11 10.63 35.48 9.11L35.48 9.11L35.48 9.11Q34.86 7.60 34.27 7.57L34.27 7.57L34.27 7.57Q34.43 7.10 34.76 6.87L34.76 6.87L34.76 6.87Q35.10 6.65 35.42 6.65L35.42 6.65L35.42 6.65Q36.27 6.65 36.85 8.09L36.85 8.09L36.85 8.09Q37.23 9.07 38.49 14.71L38.49 14.71L38.49 14.71Q39.23 12.87 39.68 10.92L39.68 10.92L39.68 10.92Q40.14 8.97 40.14 7.88ZM45.14 16.23L45.14 16.23L45.14 16.23Q44.18 16.23 43.63 15.29L43.63 15.29L43.63 15.29Q43.08 14.35 43.08 12.71L43.08 12.71L43.08 12.71Q43.08 10.08 44.26 8.27L44.26 8.27L44.26 8.27Q45.44 6.45 47.18 6.45L47.18 6.45L47.18 6.45Q48.37 6.45 49.15 7.39L49.15 7.39L49.15 7.39Q49.27 6.96 49.44 6.78L49.44 6.78L49.44 6.78Q49.62 6.59 49.99 6.59L49.99 6.59L49.99 6.59Q50.36 6.59 50.68 6.96L50.68 6.96L50.68 6.96Q50.43 7.63 50.25 9.21L50.25 9.21L50.25 9.21Q50.06 10.79 50.06 12.16L50.06 12.16L50.06 12.16Q50.06 13.52 50.21 14.27L50.21 14.27L50.21 14.27Q50.36 15.02 50.71 15.61L50.71 15.61L50.71 15.61Q50.30 16.13 49.76 16.13L49.76 16.13L49.76 16.13Q48.55 16.13 48.55 13.17L48.55 13.17L48.55 13.17Q48.55 12.70 48.66 11.51L48.66 11.51L48.66 11.51Q47.94 13.54 46.93 14.88L46.93 14.88L46.93 14.88Q45.93 16.23 45.14 16.23ZM47.24 7.42L47.24 7.42L47.24 7.42Q46.05 7.42 45.30 8.81L45.30 8.81L45.30 8.81Q44.55 10.19 44.55 12.36L44.55 12.36L44.55 12.36Q44.55 13.47 44.84 14.11L44.84 14.11L44.84 14.11Q45.12 14.74 45.62 14.74L45.62 14.74L45.62 14.74Q46.12 14.74 46.88 13.65L46.88 13.65L46.88 13.65Q47.64 12.56 48.27 10.98L48.27 10.98L48.27 10.98Q48.90 9.41 49.04 8.15L49.04 8.15L49.04 8.15Q48.09 7.42 47.24 7.42Z"></path></g><!----><!----></svg>